<svg width="460" height="309" viewBox="0 0 460 309" fill="none" xmlns="http://www.w3.org/2000/svg">
<path fill-rule="evenodd" clip-rule="evenodd" d="M414.761 58.5075C355.326 -38.8072 265.792 28.8957 265.792 28.8957C259.986 33.2694 249.279 36.8651 242.004 36.8821L218.021 36.8987C210.746 36.907 200.039 33.3112 194.241 28.9376C194.241 28.9376 104.699 -38.7819 45.2561 58.5325C-14.1705 155.814 9.77805 261.758 9.77805 261.758C13.9734 287.699 27.8024 305.009 53.8988 302.835C79.9196 300.669 136.4 232.974 136.4 232.974C141.066 227.397 150.842 222.839 158.1 222.839L301.874 222.814C309.141 222.814 318.909 227.371 323.566 232.949C323.566 232.949 380.055 300.644 406.118 302.81C432.181 304.984 446.043 287.657 450.213 261.733C450.205 261.733 474.196 155.805 414.761 58.5075ZM175.973 137.717H145.144V167.329C145.144 167.329 138.616 172.296 128.513 172.17C118.427 172.02 113.862 166.752 113.862 166.752V137.725H84.7445C84.7445 137.725 81.1112 134.012 80.1378 124.237C79.1811 114.461 84.1572 106.558 84.1572 106.558H114.995V75.8345C114.995 75.8345 121.338 72.4478 130.46 72.7068C139.59 72.9913 146.277 76.4116 146.277 76.4116L146.151 106.55H175.269C175.269 106.55 180.354 113.056 180.773 120.917C181.193 128.786 175.973 137.717 175.973 137.717ZM317.381 171.468C303.88 171.468 292.996 160.589 292.996 147.15C292.996 133.686 303.88 122.832 317.381 122.832C330.824 122.832 341.791 133.686 341.791 147.15C341.791 160.597 330.824 171.468 317.381 171.468ZM317.381 104.56C303.88 104.56 292.996 93.6884 292.996 80.2497C292.996 66.7861 303.88 55.9316 317.381 55.9316C330.824 55.9316 341.791 66.7861 341.791 80.2497C341.791 93.6967 330.824 104.56 317.381 104.56ZM378.15 140.477C364.648 140.477 353.765 129.605 353.765 116.158C353.765 102.703 364.648 91.8404 378.15 91.8404C391.593 91.8404 402.56 102.703 402.56 116.158C402.56 129.605 391.593 140.477 378.15 140.477Z" fill="white"/>
<path d="M414.761 58.5075L410.494 61.1137L410.494 61.114L414.761 58.5075ZM265.792 28.8957L268.801 32.8896L268.808 32.8839L265.792 28.8957ZM242.004 36.8821L242.007 41.8821L242.015 41.882L242.004 36.8821ZM218.021 36.8987L218.018 31.8987L218.016 31.8987L218.021 36.8987ZM194.241 28.9376L191.225 32.9255L191.23 32.9294L194.241 28.9376ZM45.2561 58.5325L49.5229 61.139L49.523 61.1389L45.2561 58.5325ZM9.77805 261.758L14.7139 260.96L14.6892 260.807L14.655 260.656L9.77805 261.758ZM53.8988 302.835L53.484 297.852L53.4836 297.852L53.8988 302.835ZM136.4 232.974L132.565 229.766L132.561 229.771L136.4 232.974ZM158.1 222.839V227.839H158.101L158.1 222.839ZM301.874 222.814V217.814H301.874L301.874 222.814ZM323.566 232.949L327.405 229.746L327.404 229.745L323.566 232.949ZM406.118 302.81L406.533 297.827L406.532 297.827L406.118 302.81ZM450.213 261.733L455.15 262.527L456.082 256.733H450.213V261.733ZM175.973 137.717V142.717H178.843L180.29 140.24L175.973 137.717ZM145.144 137.717V132.717H140.144V137.717H145.144ZM145.144 167.329L148.172 171.308L150.144 169.807V167.329H145.144ZM128.513 172.17L128.438 177.17L128.451 177.17L128.513 172.17ZM113.862 166.752H108.862V168.616L110.083 170.026L113.862 166.752ZM113.862 137.725H118.862V132.725H113.862V137.725ZM84.7445 137.725L81.1707 141.222L82.6415 142.725H84.7445V137.725ZM80.1378 124.237L75.1616 124.724L75.1624 124.732L80.1378 124.237ZM84.1572 106.558V101.558H81.3969L79.9261 103.894L84.1572 106.558ZM114.995 106.558V111.558H119.995V106.558H114.995ZM114.995 75.8345L112.64 71.4237L109.995 72.8359V75.8345H114.995ZM130.46 72.7068L130.615 67.7092L130.601 67.7088L130.46 72.7068ZM146.277 76.4116L151.277 76.4324L151.29 73.3593L148.554 71.96L146.277 76.4116ZM146.151 106.55L141.152 106.529L141.131 111.55H146.151V106.55ZM175.269 106.55L179.208 103.471L177.707 101.55H175.269V106.55ZM180.773 120.917L185.766 120.651L185.766 120.65L180.773 120.917ZM419.028 55.9014C403.728 30.8507 386.257 16.0608 368.417 8.24613C350.599 0.441386 332.827 -0.224655 317.2 2.27118C301.606 4.76174 288.037 10.4141 278.412 15.3975C273.586 17.8961 269.716 20.245 267.037 21.9803C265.697 22.8485 264.653 23.5647 263.933 24.0714C263.574 24.3248 263.295 24.5259 263.101 24.6676C263.004 24.7385 262.928 24.7945 262.874 24.8348C262.847 24.8549 262.825 24.8712 262.809 24.8833C262.801 24.8894 262.794 24.8945 262.789 24.8985C262.786 24.9006 262.783 24.9028 262.782 24.9038C262.779 24.9058 262.777 24.9076 265.792 28.8957C268.808 32.8839 268.807 32.8851 268.805 32.8861C268.805 32.8861 268.804 32.8868 268.804 32.8868C268.804 32.8867 268.806 32.8856 268.809 32.8836C268.814 32.8794 268.825 32.8713 268.841 32.8593C268.874 32.8352 268.927 32.7956 269.001 32.7413C269.15 32.6328 269.381 32.4657 269.692 32.2469C270.313 31.8094 271.25 31.1661 272.474 30.3731C274.924 28.786 278.513 26.6059 283.01 24.2779C292.029 19.6081 304.559 14.4169 318.777 12.146C332.963 9.88048 348.719 10.5352 364.404 17.4059C380.067 24.2667 396.076 37.507 410.494 61.1137L419.028 55.9014ZM262.784 24.9019C260.444 26.6644 256.848 28.4427 252.857 29.7827C248.866 31.1227 244.925 31.8753 241.992 31.8821L242.015 41.882C246.358 41.8719 251.407 40.8182 256.04 39.2626C260.673 37.7071 265.334 35.5007 268.801 32.8896L262.784 24.9019ZM242 31.8821L218.018 31.8987L218.025 41.8987L242.007 41.8821L242 31.8821ZM218.016 31.8987C215.091 31.902 211.154 31.157 207.166 29.8205C203.178 28.4842 199.587 26.7068 197.252 24.9459L191.23 32.9294C194.694 35.5421 199.355 37.7493 203.989 39.3023C208.622 40.855 213.677 41.9037 218.027 41.8987L218.016 31.8987ZM194.241 28.9376C197.257 24.9497 197.255 24.9479 197.252 24.9459C197.251 24.9449 197.248 24.9426 197.245 24.9406C197.24 24.9366 197.233 24.9315 197.225 24.9254C197.209 24.9132 197.187 24.897 197.16 24.8769C197.106 24.8366 197.03 24.7805 196.933 24.7097C196.739 24.5679 196.46 24.3667 196.101 24.1133C195.381 23.6065 194.337 22.8901 192.996 22.0217C190.317 20.2859 186.447 17.9364 181.621 15.437C171.994 10.452 158.425 4.79753 142.829 2.3048C127.2 -0.193208 109.427 0.470569 91.6068 8.27361C73.7641 16.0866 56.2909 30.8754 40.9891 55.9261L49.523 61.1389C63.9426 37.5323 79.9532 24.2932 95.6179 17.4339C111.305 10.5647 127.063 9.91189 141.25 12.1795C155.471 14.4523 168.002 19.6456 177.022 24.3169C181.519 26.6457 185.109 28.8265 187.559 30.414C188.783 31.2072 189.72 31.8507 190.341 32.2884C190.652 32.5072 190.883 32.6744 191.032 32.783C191.106 32.8372 191.16 32.8769 191.192 32.9009C191.208 32.9129 191.219 32.9211 191.225 32.9252C191.227 32.9273 191.229 32.9284 191.229 32.9284C191.229 32.9285 191.228 32.9277 191.228 32.9278C191.227 32.9268 191.225 32.9255 194.241 28.9376ZM40.9892 55.926C10.6981 105.512 1.69775 157.23 0.235568 196.439C-0.49604 216.058 0.657131 232.598 1.99735 244.255C2.66768 250.086 3.38548 254.701 3.93954 257.875C4.2166 259.463 4.45282 260.691 4.62183 261.531C4.70634 261.951 4.77406 262.274 4.8217 262.497C4.84552 262.608 4.86432 262.694 4.87769 262.755C4.88438 262.785 4.8897 262.81 4.89362 262.827C4.89558 262.836 4.89719 262.843 4.89844 262.849C4.89906 262.851 4.89973 262.854 4.90004 262.856C4.90062 262.858 4.9011 262.86 9.77805 261.758C14.655 260.656 14.6553 260.657 14.6555 260.658C14.6555 260.658 14.6556 260.658 14.6555 260.658C14.6553 260.657 14.6547 260.654 14.6538 260.65C14.652 260.642 14.6487 260.627 14.6441 260.607C14.635 260.565 14.6203 260.498 14.6006 260.406C14.5613 260.221 14.5018 259.938 14.4254 259.558C14.2726 258.799 14.0523 257.656 13.7906 256.156C13.2671 253.157 12.5782 248.735 11.9319 243.113C10.6389 231.866 9.51905 215.84 10.2286 196.812C11.6488 158.729 20.3874 108.834 49.5229 61.139L40.9892 55.926ZM4.84219 262.556C7.03576 276.12 11.8372 288.06 20.0767 296.362C28.4784 304.827 39.9679 309.013 54.3139 307.817L53.4836 297.852C41.7332 298.831 33.2601 295.449 27.1743 289.317C20.9264 283.022 16.7157 273.337 14.7139 260.96L4.84219 262.556ZM54.3135 307.817C58.4812 307.47 62.8734 305.865 67.1867 303.665C71.5511 301.438 76.1355 298.446 80.7486 295.019C89.9733 288.167 99.6625 279.318 108.425 270.646C117.206 261.955 125.152 253.346 130.897 246.917C133.772 243.7 136.101 241.023 137.714 239.147C138.521 238.209 139.149 237.471 139.576 236.965C139.79 236.712 139.954 236.517 140.066 236.385C140.122 236.318 140.164 236.268 140.193 236.233C140.208 236.216 140.219 236.202 140.227 236.193C140.231 236.188 140.234 236.185 140.236 236.182C140.237 236.181 140.238 236.18 140.238 236.179C140.239 236.178 140.24 236.177 136.4 232.974C132.561 229.771 132.561 229.771 132.561 229.771C132.561 229.771 132.561 229.772 132.56 229.773C132.559 229.774 132.557 229.777 132.554 229.78C132.548 229.787 132.538 229.798 132.526 229.814C132.5 229.844 132.461 229.89 132.409 229.952C132.305 230.076 132.149 230.262 131.943 230.505C131.531 230.992 130.92 231.71 130.131 232.627C128.554 234.462 126.267 237.09 123.44 240.254C117.782 246.585 109.982 255.035 101.39 263.539C92.7794 272.061 83.4696 280.541 74.7858 286.991C70.4446 290.216 66.3474 292.867 62.6424 294.757C58.8864 296.673 55.8215 297.657 53.484 297.852L54.3135 307.817ZM140.236 236.182C141.967 234.112 144.907 231.973 148.393 230.346C151.879 228.718 155.406 227.839 158.1 227.839V217.839C153.536 217.839 148.546 219.238 144.163 221.284C139.78 223.33 135.499 226.259 132.565 229.766L140.236 236.182ZM158.101 227.839L301.875 227.814L301.874 217.814L158.099 217.839L158.101 227.839ZM301.874 227.814C304.574 227.814 308.101 228.694 311.583 230.32C315.066 231.947 318 234.085 319.728 236.154L327.404 229.745C324.474 226.236 320.197 223.306 315.815 221.26C311.432 219.213 306.442 217.814 301.874 217.814V227.814ZM323.566 232.949C319.727 236.153 319.727 236.153 319.728 236.154C319.729 236.155 319.73 236.156 319.731 236.157C319.733 236.16 319.736 236.164 319.74 236.168C319.748 236.178 319.759 236.191 319.773 236.208C319.802 236.243 319.845 236.294 319.901 236.36C320.012 236.493 320.176 236.687 320.39 236.94C320.818 237.446 321.446 238.184 322.253 239.122C323.866 240.999 326.196 243.676 329.072 246.893C334.818 253.321 342.767 261.931 351.552 270.622C360.318 279.294 370.012 288.143 379.244 294.995C383.861 298.422 388.449 301.414 392.818 303.641C397.135 305.841 401.532 307.446 405.704 307.792L406.532 297.827C404.188 297.632 401.118 296.647 397.358 294.731C393.649 292.841 389.548 290.19 385.204 286.965C376.514 280.515 367.199 272.035 358.585 263.513C349.99 255.009 342.187 246.56 336.527 240.228C333.7 237.065 331.412 234.436 329.835 232.602C329.046 231.685 328.435 230.967 328.023 230.48C327.817 230.236 327.661 230.051 327.557 229.927C327.505 229.865 327.466 229.819 327.44 229.788C327.428 229.773 327.418 229.762 327.412 229.755C327.409 229.751 327.407 229.749 327.406 229.747C327.405 229.747 327.405 229.746 327.405 229.746C327.405 229.746 327.405 229.746 323.566 232.949ZM405.702 307.792C420.035 308.988 431.523 304.796 439.924 296.33C448.164 288.026 452.969 276.086 455.15 262.527L445.277 260.939C443.288 273.303 439.076 282.988 432.826 289.286C426.738 295.421 418.264 298.805 406.533 297.827L405.702 307.792ZM450.213 256.733C454.061 258.54 455.119 262.698 455.11 262.741C455.108 262.755 455.103 262.775 455.102 262.78C455.101 262.786 455.1 262.789 455.102 262.781C455.104 262.772 455.109 262.748 455.115 262.721C455.128 262.663 455.146 262.579 455.17 262.468C455.217 262.247 455.284 261.925 455.369 261.505C455.537 260.666 455.774 259.439 456.051 257.851C456.605 254.678 457.324 250.064 457.996 244.234C459.339 232.577 460.496 216.039 459.769 196.421C458.315 157.214 449.323 105.496 419.028 55.9011L410.494 61.114C439.633 108.817 448.364 158.711 449.776 196.792C450.481 215.818 449.357 231.843 448.061 243.089C447.414 248.71 446.724 253.132 446.2 256.131C445.938 257.63 445.718 258.774 445.565 259.534C445.488 259.914 445.429 260.198 445.389 260.384C445.37 260.477 445.355 260.545 445.345 260.59C445.34 260.614 445.336 260.629 445.333 260.645C445.332 260.651 445.329 260.663 445.326 260.676C445.325 260.684 445.32 260.706 445.317 260.722C445.307 260.767 446.366 264.926 450.213 266.733V256.733ZM175.973 132.717H145.144V142.717H175.973V132.717ZM140.144 137.717V167.329H150.144V137.717H140.144ZM145.144 167.329C142.117 163.349 142.118 163.348 142.12 163.347C142.12 163.347 142.121 163.346 142.122 163.345C142.124 163.344 142.126 163.343 142.127 163.341C142.131 163.339 142.133 163.337 142.136 163.335C142.141 163.331 142.144 163.329 142.146 163.328C142.15 163.325 142.147 163.326 142.139 163.332C142.123 163.344 142.084 163.372 142.022 163.415C141.897 163.5 141.684 163.641 141.387 163.82C140.791 164.179 139.869 164.683 138.667 165.192C136.257 166.213 132.789 167.223 128.575 167.171L128.451 177.17C134.34 177.243 139.187 175.832 142.567 174.401C144.26 173.684 145.602 172.954 146.546 172.386C147.019 172.101 147.394 171.855 147.667 171.669C147.803 171.576 147.913 171.497 147.998 171.436C148.04 171.406 148.076 171.38 148.105 171.358C148.119 171.347 148.132 171.338 148.143 171.329C148.149 171.325 148.154 171.321 148.159 171.318C148.161 171.316 148.164 171.314 148.166 171.312C148.167 171.312 148.168 171.311 148.169 171.31C148.17 171.309 148.172 171.308 145.144 167.329ZM128.587 167.171C124.442 167.109 121.583 166.007 119.836 165.035C118.95 164.543 118.331 164.072 117.966 163.763C117.783 163.608 117.666 163.495 117.612 163.441C117.584 163.414 117.573 163.402 117.578 163.407C117.581 163.41 117.587 163.417 117.598 163.428C117.603 163.434 117.609 163.441 117.616 163.449C117.62 163.453 117.624 163.458 117.628 163.462C117.63 163.465 117.632 163.467 117.634 163.47C117.635 163.471 117.637 163.473 117.638 163.473C117.639 163.475 117.641 163.477 113.862 166.752C110.083 170.026 110.085 170.028 110.087 170.03C110.087 170.03 110.089 170.033 110.09 170.034C110.093 170.037 110.095 170.04 110.098 170.043C110.103 170.049 110.109 170.055 110.115 170.062C110.126 170.075 110.139 170.089 110.153 170.105C110.182 170.137 110.215 170.173 110.253 170.215C110.33 170.297 110.427 170.398 110.544 170.516C110.779 170.75 111.097 171.05 111.5 171.391C112.306 172.074 113.458 172.931 114.975 173.774C118.032 175.474 122.497 177.081 128.438 177.17L128.587 167.171ZM118.862 166.752V137.725H108.862V166.752H118.862ZM113.862 132.725H84.7445V142.725H113.862V132.725ZM84.7445 137.725C88.3182 134.229 88.3202 134.231 88.3222 134.233C88.3228 134.233 88.3248 134.235 88.3261 134.237C88.3287 134.239 88.3312 134.242 88.3337 134.244C88.3386 134.249 88.3433 134.254 88.3478 134.259C88.3568 134.268 88.3649 134.277 88.3722 134.285C88.3868 134.3 88.3979 134.312 88.4059 134.321C88.4217 134.338 88.4247 134.342 88.4161 134.332C88.3991 134.312 88.3358 134.235 88.2376 134.097C88.0418 133.821 87.7036 133.297 87.3155 132.487C86.5439 130.876 85.5441 128.069 85.1132 123.741L75.1624 124.732C75.7048 130.18 77.0084 134.117 78.2968 136.807C78.9387 138.147 79.5696 139.162 80.0855 139.888C80.3432 140.251 80.5713 140.54 80.7567 140.761C80.8494 140.872 80.9314 140.965 81.001 141.042C81.0357 141.08 81.0674 141.114 81.0958 141.144C81.11 141.159 81.1233 141.173 81.1358 141.186C81.1421 141.193 81.1481 141.199 81.1539 141.205C81.1568 141.208 81.1597 141.211 81.1625 141.214C81.1639 141.215 81.1659 141.217 81.1666 141.218C81.1687 141.22 81.1707 141.222 84.7445 137.725ZM85.114 123.75C84.7283 119.808 85.5366 116.146 86.5056 113.39C86.9846 112.028 87.4863 110.935 87.8572 110.201C88.042 109.835 88.1923 109.563 88.288 109.395C88.3358 109.311 88.3698 109.254 88.3874 109.225C88.3962 109.21 88.4009 109.202 88.4011 109.202C88.4013 109.202 88.4003 109.203 88.3981 109.207C88.3971 109.208 88.3957 109.211 88.3941 109.213C88.3933 109.215 88.3924 109.216 88.3914 109.218C88.3909 109.218 88.3901 109.22 88.3899 109.22C88.3891 109.221 88.3883 109.222 84.1572 106.558C79.9261 103.894 79.9253 103.895 79.9244 103.897C79.9241 103.897 79.9232 103.899 79.9226 103.9C79.9213 103.902 79.9199 103.904 79.9185 103.906C79.9157 103.911 79.9125 103.916 79.9091 103.921C79.9021 103.932 79.894 103.946 79.8848 103.961C79.8663 103.991 79.8431 104.029 79.8157 104.074C79.7609 104.165 79.6889 104.287 79.6025 104.439C79.4298 104.742 79.1988 105.163 78.932 105.691C78.3999 106.744 77.7173 108.237 77.0719 110.073C75.792 113.712 74.5906 118.889 75.1616 124.724L85.114 123.75ZM84.1572 111.558H114.995V101.558H84.1572V111.558ZM119.995 106.558V75.8345H109.995V106.558H119.995ZM114.995 75.8345C117.35 80.2453 117.348 80.246 117.347 80.2467C117.347 80.2469 117.345 80.2476 117.344 80.248C117.343 80.2489 117.341 80.2497 117.34 80.2505C117.337 80.252 117.334 80.2533 117.332 80.2544C117.328 80.2567 117.325 80.2581 117.324 80.2588C117.321 80.2602 117.324 80.2586 117.333 80.254C117.351 80.245 117.392 80.2246 117.454 80.1945C117.58 80.1341 117.792 80.0352 118.085 79.9107C118.672 79.6612 119.574 79.312 120.738 78.9644C123.075 78.2664 126.402 77.5936 130.318 77.7048L130.601 67.7088C125.396 67.561 120.991 68.4521 117.876 69.3827C116.314 69.8493 115.06 70.3306 114.172 70.708C113.728 70.897 113.373 71.0606 113.116 71.1845C112.987 71.2465 112.883 71.2986 112.803 71.339C112.763 71.3593 112.73 71.3766 112.703 71.3908C112.689 71.3979 112.677 71.4042 112.667 71.4097C112.661 71.4124 112.656 71.415 112.652 71.4173C112.65 71.4185 112.648 71.4196 112.646 71.4207C112.645 71.4212 112.643 71.422 112.643 71.4222C112.641 71.423 112.64 71.4237 114.995 75.8345ZM130.304 77.7044C134.298 77.8288 137.788 78.6427 140.283 79.4327C141.524 79.8255 142.499 80.2062 143.144 80.4786C143.466 80.6146 143.704 80.7229 143.85 80.7913C143.922 80.8255 143.972 80.8496 143.998 80.8621C144.01 80.8683 144.017 80.8717 144.018 80.8719C144.018 80.8721 144.016 80.8714 144.014 80.8699C144.012 80.8692 144.01 80.8683 144.008 80.8672C144.007 80.8666 144.006 80.866 144.005 80.8653C144.004 80.865 144.003 80.8644 144.002 80.8643C144.001 80.8637 144 80.8632 146.277 76.4116C148.554 71.96 148.553 71.9594 148.551 71.9588C148.551 71.9586 148.55 71.958 148.549 71.9575C148.547 71.9567 148.545 71.9557 148.543 71.9547C148.54 71.9528 148.535 71.9506 148.531 71.9482C148.521 71.9435 148.51 71.9379 148.498 71.9316C148.472 71.9189 148.44 71.903 148.402 71.8841C148.325 71.8464 148.222 71.7967 148.094 71.7368C147.839 71.617 147.483 71.4559 147.035 71.2668C146.141 70.8891 144.873 70.3969 143.301 69.8991C140.17 68.9078 135.751 67.8693 130.615 67.7092L130.304 77.7044ZM141.277 76.3907L141.152 106.529L151.151 106.571L151.277 76.4324L141.277 76.3907ZM146.151 111.55H175.269V101.55H146.151V111.55ZM175.269 106.55C171.329 109.629 171.328 109.628 171.328 109.627C171.327 109.627 171.327 109.626 171.326 109.625C171.325 109.624 171.324 109.623 171.324 109.622C171.322 109.62 171.321 109.618 171.32 109.617C171.318 109.614 171.317 109.613 171.317 109.613C171.318 109.614 171.323 109.621 171.332 109.634C171.351 109.659 171.387 109.707 171.438 109.776C171.539 109.916 171.697 110.141 171.896 110.442C172.295 111.047 172.843 111.941 173.405 113.048C174.553 115.311 175.621 118.201 175.78 121.183L185.766 120.65C185.506 115.771 183.822 111.478 182.323 108.523C181.56 107.021 180.811 105.797 180.244 104.937C179.959 104.505 179.717 104.16 179.539 103.913C179.449 103.79 179.375 103.69 179.319 103.616C179.292 103.579 179.268 103.548 179.249 103.524C179.24 103.512 179.232 103.502 179.225 103.493C179.222 103.488 179.219 103.484 179.216 103.481C179.214 103.479 179.213 103.477 179.212 103.475C179.211 103.475 179.21 103.474 179.21 103.473C179.209 103.472 179.208 103.471 175.269 106.55ZM175.78 121.183C175.934 124.063 175.031 127.474 173.871 130.454C173.314 131.885 172.743 133.101 172.315 133.953C172.102 134.377 171.927 134.705 171.81 134.919C171.751 135.026 171.707 135.104 171.681 135.151C171.668 135.174 171.659 135.19 171.655 135.197C171.653 135.201 171.652 135.202 171.652 135.202C171.652 135.202 171.653 135.201 171.653 135.2C171.654 135.199 171.654 135.198 171.655 135.197C171.655 135.197 171.655 135.196 171.656 135.196C171.656 135.195 171.656 135.194 175.973 137.717C180.29 140.24 180.291 140.239 180.291 140.238C180.292 140.237 180.292 140.236 180.293 140.236C180.293 140.234 180.294 140.233 180.295 140.231C180.297 140.227 180.3 140.223 180.302 140.219C180.308 140.21 180.314 140.198 180.322 140.185C180.338 140.158 180.358 140.122 180.383 140.078C180.433 139.99 180.501 139.869 180.584 139.716C180.751 139.411 180.98 138.98 181.25 138.444C181.787 137.376 182.495 135.867 183.19 134.082C184.535 130.628 186.032 125.64 185.766 120.651L175.78 121.183ZM317.381 166.468C306.632 166.468 297.996 157.818 297.996 147.15H287.996C287.996 163.359 301.128 176.468 317.381 176.468V166.468ZM297.996 147.15C297.996 136.461 306.629 127.832 317.381 127.832V117.832C301.132 117.832 287.996 130.912 287.996 147.15H297.996ZM317.381 127.832C328.09 127.832 336.791 136.475 336.791 147.15H346.791C346.791 130.897 333.558 117.832 317.381 117.832V127.832ZM336.791 147.15C336.791 157.81 328.087 166.468 317.381 166.468V176.468C333.56 176.468 346.791 163.383 346.791 147.15H336.791ZM317.381 99.5597C306.63 99.5597 297.996 90.9153 297.996 80.2497H287.996C287.996 96.4615 301.13 109.56 317.381 109.56V99.5597ZM297.996 80.2497C297.996 69.5604 306.629 60.9316 317.381 60.9316V50.9316C301.132 50.9316 287.996 64.0118 287.996 80.2497H297.996ZM317.381 60.9316C328.09 60.9316 336.791 69.5748 336.791 80.2497H346.791C346.791 63.9974 333.558 50.9316 317.381 50.9316V60.9316ZM336.791 80.2497C336.791 90.908 328.09 99.5597 317.381 99.5597V109.56C333.558 109.56 346.791 96.4853 346.791 80.2497H336.791ZM378.15 135.477C367.399 135.477 358.765 126.833 358.765 116.158H348.765C348.765 132.377 361.898 145.477 378.15 145.477V135.477ZM358.765 116.158C358.765 105.476 367.398 96.8404 378.15 96.8404V86.8404C361.899 86.8404 348.765 99.9301 348.765 116.158H358.765ZM378.15 96.8404C388.858 96.8404 397.56 105.491 397.56 116.158H407.56C407.56 99.9156 394.328 86.8404 378.15 86.8404V96.8404ZM397.56 116.158C397.56 126.819 388.856 135.477 378.15 135.477V145.477C394.329 145.477 407.56 132.392 407.56 116.158H397.56Z" fill="black"/>
</svg>
